<svg xmlns="http://www.w3.org/2000/svg" version="1.1" xmlns:xlink="http://www.w3.org/1999/xlink" xmlns:svgjs="http://svgjs.com/svgjs" width="512" height="512" x="0" y="0" viewBox="0 0 60.272 60.272" style="enable-background:new 0 0 512 512" xml:space="preserve" class=""><g><path d="m31.577 1.863 12.462 8.139v48.577H31.577zM45.015 36.875v21.449h15.258V41.749l-15.258-4.874zm6.442 16.786-4.662-1.357V48.28l4.662 1.692v3.689zm0-7.037-4.662-1.358v-4.022l4.662 1.694v3.686zm5.849 8.73-4.664-1.355v-4.026l4.664 1.695v3.686zm0-7.036-4.663-1.356v-4.024l4.665 1.692v3.688h-.002zM14.75 11.527v32.208l-2.203 1.439V34.417l-1.398.578v-10.73L.974 28.757V39.21L0 39.614v18.965h30.154V1.694L14.75 11.527zM1.907 30.804l3.434-1.589v4.132l-3.434 1.526v-4.069zm.255 6.697 3.433-1.591v4.135l-3.433 1.524v-4.068zm3.537 14.844-3.433 1.528v-4.071l3.433-1.589v4.132zm0-6.296-3.433 1.529v-4.071l3.433-1.588v4.13zm.489-17.237 3.434-1.589v4.133l-3.434 1.525v-4.069zm.255 6.696 3.433-1.589v4.133l-3.433 1.527v-4.071zm3.835 14.868-3.434 1.527v-4.069l3.434-1.591v4.133zm0-6.295-3.434 1.525v-4.067l3.434-1.59v4.132zm10.999.716-4.749 2.973v-4.408l4.749-3.072v4.507zm0-7.448-4.749 2.971v-4.41l4.749-3.072v4.511zm0-7.45-4.749 2.974v-4.411l4.749-3.074v4.511zm0-7.449-4.749 2.97v-4.408l4.749-3.074v4.512zm0-7.451-4.749 2.972v-4.409l4.749-3.073v4.51zm7.036 25.396-5.51 3.448V39.3l5.51-3.566v4.661zm0-7.45-5.51 3.449V31.85l5.51-3.568v4.663zm0-7.45-5.51 3.449v-4.542l5.51-3.569v4.662zm0-7.45-5.51 3.449v-4.543l5.51-3.568v4.662zm0-7.451-5.51 3.449V9.5l5.51-3.568v4.662z" fill="#000000" data-original="#000000" class=""></path></g></svg>